<svg width="275" height="46" viewBox="0 0 275 46" fill="none" xmlns="http://www.w3.org/2000/svg">
<path d="M88.0594 43.6015C79.6478 35.4458 80.3913 11.5579 80.3913 11.5579H88.0594V43.6015Z" fill="#EC893C"/>
<path d="M92.496 0.149602C91.2968 1.22507 90.1959 2.40397 89.2062 3.67247C88.763 2.28046 87.9801 1.01887 86.9272 0C86.4168 1.19237 86.0467 2.43926 85.8241 3.7159C84.5599 2.36272 83.0368 1.27337 81.3438 0.51154C81.3438 0.51154 82.5732 8.79752 88.0351 9.68065C88.0351 9.68065 94.3183 6.03231 92.496 0.149602Z" fill="#B5DC5B"/>
<path d="M88.0594 43.6015C96.471 35.4458 95.7275 11.5579 95.7275 11.5579H88.0594V43.6015Z" fill="#F0A163"/>
<path fill-rule="evenodd" clip-rule="evenodd" d="M203.927 36.8936L208.562 41.5022L204.038 45.9999L199.242 41.2368C195.833 43.3178 191.768 44.0671 187.834 43.3391C183.901 42.6111 180.38 40.4579 177.955 37.2973C175.529 34.1366 174.373 30.1939 174.71 26.2344C175.047 22.2748 176.853 18.5807 179.778 15.869C182.702 13.1572 186.537 11.6212 190.538 11.559C194.539 11.4968 198.42 12.9129 201.429 15.5324C204.438 18.1519 206.359 21.7881 206.821 25.7352C207.282 29.6824 206.251 33.6591 203.927 36.8936ZM182.995 22.3998C181.964 23.933 181.413 25.7356 181.413 27.5797C181.413 30.0524 182.402 32.4239 184.163 34.1724C185.924 35.9209 188.311 36.9032 190.801 36.9032C192.658 36.9032 194.473 36.3564 196.017 35.3319C197.561 34.3074 198.765 32.8513 199.475 31.1476C200.186 29.444 200.372 27.5693 200.009 25.7607C199.647 23.9521 198.753 22.2909 197.44 20.9869C196.127 19.683 194.454 18.795 192.633 18.4353C190.812 18.0755 188.924 18.2602 187.209 18.9658C185.493 19.6715 184.027 20.8665 182.995 22.3998ZM119.918 18.2562H127.411V11.5579H105.68V18.2562H113.178V43.6015H119.918V18.2562ZM151.163 11.5579C147.973 11.5579 144.853 12.4975 142.2 14.258C139.547 16.0185 137.479 18.5208 136.258 21.4484C135.037 24.376 134.718 27.5975 135.34 30.7054C135.963 33.8133 137.499 36.6681 139.756 38.9088C142.012 41.1495 144.886 42.6754 148.016 43.2936C151.146 43.9119 154.389 43.5946 157.337 42.3819C160.285 41.1693 162.805 39.1157 164.578 36.4809C166.35 33.8462 167.297 30.7485 167.297 27.5797C167.297 23.3304 165.597 19.2552 162.571 16.2506C159.546 13.2459 155.442 11.5579 151.163 11.5579ZM151.163 36.966C149.294 36.966 147.467 36.4155 145.912 35.3841C144.358 34.3527 143.147 32.8868 142.431 31.1717C141.716 29.4565 141.529 27.5693 141.894 25.7485C142.258 23.9278 143.158 22.2553 144.48 20.9426C145.802 19.6299 147.486 18.7359 149.32 18.3738C151.153 18.0116 153.053 18.1975 154.78 18.9079C156.507 19.6183 157.984 20.8214 159.022 22.365C160.061 23.9085 160.615 25.7233 160.615 27.5797C160.615 30.0691 159.619 32.4565 157.847 34.2168C156.074 35.9771 153.67 36.966 151.163 36.966ZM242.627 11.5579V28.8103C242.627 34.553 239.711 43.6642 229.506 43.6642C219.302 43.6642 216.415 34.5916 216.415 28.7668V11.5579H223.16V29.066C223.16 30.5476 223.447 36.9418 229.55 36.9418C235.654 36.9418 235.882 30.4414 235.882 29.0226V11.5579H242.627ZM259.926 18.2562V24.3802H273.319V30.591H259.926V36.9032H274.99V43.6015H253.181V11.5579H275V18.2562H259.926ZM69.2196 11.5579V28.8103C69.2196 34.553 66.3039 43.6642 56.0992 43.6642C45.8945 43.6642 43.0032 34.5916 43.0032 28.7668V11.5579H49.748V29.066C49.748 30.5476 50.0347 36.9418 56.143 36.9418C62.2512 36.9418 62.4893 30.4414 62.4893 29.0226V11.5579H69.2196ZM29.2366 36.8936L33.8773 41.5023L29.3483 46L24.557 41.2369C21.1543 43.3157 17.0954 44.0652 13.1677 43.3398C9.24003 42.6145 5.72372 40.466 3.30106 37.3113C0.878393 34.1567 -0.277876 30.2207 0.0566074 26.2672C0.39109 22.3137 2.19247 18.6246 5.11123 15.9156C8.02998 13.2066 11.858 11.671 15.8525 11.6066C19.8469 11.5423 23.7231 12.9539 26.7287 15.5674C29.7344 18.181 31.6553 21.8102 32.1187 25.7508C32.5821 29.6915 31.555 33.6626 29.2366 36.8936ZM8.3235 22.3954C7.29173 23.9301 6.74152 25.7344 6.74248 27.5797C6.74248 30.0525 7.73161 32.424 9.49226 34.1725C11.2529 35.921 13.6409 36.9033 16.1308 36.9033C17.989 36.9042 19.8058 36.3578 21.3512 35.3332C22.8967 34.3085 24.1014 32.8517 24.8129 31.147C25.5245 29.4422 25.7109 27.5662 25.3486 25.7562C24.9863 23.9462 24.0916 22.2837 22.7777 20.9788C21.4637 19.6739 19.7896 18.7853 17.967 18.4256C16.1445 18.0658 14.2554 18.2509 12.5388 18.9576C10.8222 19.6642 9.35527 20.8606 8.3235 22.3954Z" fill="white"/>
</svg>
